/* XPM */
static char *_6342668c9ad49efbd9e5f573563de08[] = {
/* columns rows colors chars-per-pixel */
"64 64 233 2 ",
"   c #1A0E15",
".  c #170D15",
"X  c #1B1117",
"o  c #1D141B",
"O  c #1E181F",
"+  c #17131A",
"@  c #22151D",
"#  c #2B161E",
"$  c #24181F",
"%  c #2C181F",
"&  c #211117",
"*  c #3C141B",
"=  c #32151D",
"-  c #280E16",
";  c #1E1921",
":  c #1D1824",
">  c #231B23",
",  c #2C1A22",
"<  c #231E2A",
"1  c #251A24",
"2  c #331B24",
"3  c #391C25",
"4  c #3C1F28",
"5  c #351B24",
"6  c #242027",
"7  c #25222B",
"8  c #2A242C",
"9  c #2C282F",
"0  c #29232A",
"q  c #34222A",
"w  c #3C212B",
"e  c #32282F",
"r  c #252333",
"t  c #292633",
"y  c #2C2B33",
"u  c #2B2D3C",
"i  c #252939",
"p  c #322C34",
"a  c #392C34",
"s  c #352D37",
"d  c #2E333A",
"f  c #2E3037",
"g  c #323037",
"h  c #33343B",
"j  c #3C353C",
"k  c #34383E",
"l  c #3A353C",
"z  c #4C151C",
"x  c #44141C",
"c  c #550F18",
"v  c #6B131A",
"b  c #4E1D27",
"n  c #43232D",
"m  c #49232E",
"M  c #4A2731",
"N  c #452B34",
"B  c #4C2933",
"V  c #452933",
"C  c #522B36",
"Z  c #562E39",
"A  c #4B333B",
"S  c #45323A",
"D  c #5C323D",
"F  c #52343C",
"G  c #73222A",
"H  c #2A2C43",
"J  c #2D334A",
"K  c #353C43",
"L  c #3A3D44",
"P  c #323549",
"I  c #2D3555",
"U  c #353B55",
"Y  c #2E3C64",
"T  c #433D44",
"R  c #493B43",
"E  c #573C45",
"W  c #653843",
"Q  c #3B4047",
"!  c #36434A",
"~  c #3B444B",
"^  c #394349",
"/  c #3C4C53",
"(  c #3D445A",
")  c #3D5259",
"_  c #394667",
"`  c #394C75",
"'  c #3E527F",
"]  c #42444B",
"[  c #4B444B",
"{  c #44484E",
"}  c #454046",
"|  c #56454D",
" . c #444D53",
".. c #4B4C52",
"X. c #434958",
"o. c #584C53",
"O. c #455056",
"+. c #45545B",
"@. c #4A555B",
"#. c #4C595E",
"$. c #48545A",
"%. c #56555B",
"&. c #63444D",
"*. c #68545B",
"=. c #6D525A",
"-. c #465B62",
";. c #4D5C62",
":. c #475867",
">. c #535D63",
",. c #595C63",
"<. c #485D73",
"1. c #4A556F",
"2. c #675C63",
"3. c #745C63",
"4. c #4C6166",
"5. c #43646D",
"6. c #4C646C",
"7. c #4B676D",
"8. c #536166",
"9. c #5A6166",
"0. c #55646A",
"q. c #5A656B",
"w. c #55696E",
"e. c #5B6A6E",
"r. c #456770",
"t. c #4B6671",
"y. c #4C6A74",
"u. c #4D6D79",
"i. c #486773",
"p. c #536D74",
"a. c #5C6D72",
"s. c #516F7A",
"d. c #566676",
"f. c #4E727B",
"g. c #557177",
"h. c #5C7175",
"j. c #53737C",
"k. c #5B757B",
"l. c #5D797E",
"z. c #54797F",
"x. c #65666C",
"c. c #77656B",
"v. c #676B72",
"b. c #786C72",
"n. c #617276",
"m. c #637579",
"M. c #647A7E",
"N. c #6B767B",
"B. c #797479",
"V. c #942F32",
"C. c #83757A",
"Z. c #826E75",
"A. c #B15853",
"S. c #CE504D",
"D. c #65807F",
"F. c #3A5191",
"G. c #425A80",
"H. c #465F90",
"J. c #557681",
"K. c #567A82",
"L. c #5A7C83",
"P. c #5C7A88",
"I. c #4F6C8F",
"U. c #637D82",
"Y. c #6A7D82",
"T. c #657B8B",
"R. c #787D82",
"E. c #877C82",
"W. c #5C8286",
"Q. c #5E8489",
"!. c #648184",
"~. c #6A8385",
"^. c #6D8A86",
"/. c #62858A",
"(. c #6C8489",
"). c #64898D",
"_. c #6D8B8B",
"`. c #72858A",
"'. c #708D8A",
"]. c #7B8489",
"[. c #72918D",
"{. c #6C8E91",
"}. c #678B94",
"|. c #788D93",
" X c #6D9294",
".X c #6B9598",
"XX c #749393",
"oX c #799593",
"OX c #78989A",
"+X c #5B86AA",
"@X c #799DA1",
"#X c #6692AE",
"$X c #7BA2A5",
"%X c #7BA9AB",
"&X c #75A3A4",
"*X c #7EB0B0",
"=X c #88858A",
"-X c #848C91",
";X c #899599",
":X c #969599",
">X c #969EA1",
",X c #8E9DA2",
"<X c #86A7AA",
"1X c #97A6AA",
"2X c #83AEB2",
"3X c #99ADB1",
"4X c #8CBCBD",
"5X c #87B3B4",
"6X c #97B6B8",
"7X c #A2A8AC",
"8X c #A4BABD",
"9X c #A6B6B8",
"0X c #ACB6B8",
"qX c #A09FA3",
"wX c #96BFC1",
"eX c #8EBFC0",
"rX c #A9BEC0",
"tX c #95C5C6",
"yX c #96CACC",
"uX c #A6C6C9",
"iX c #A7C4C7",
"pX c #B2CACC",
"aX c #ABCED2",
"sX c #ADD4D8",
"dX c #B2D5D9",
"fX c #B5D7DB",
"gX c #B8DEE4",
"hX c #ABDFE0",
"jX c #BBE4E9",
"kX c #C2D5D9",
"lX c #C5E8ED",
"zX c #CCF1F5",
"xX c #C1DFE2",
/* pixels */
"y.i.u.j.y.u.j.f.6.4.+.7 + ; y ~ K t 9 6 d 0.'.OX>.K f y K +.;.~ Q a.8.K k.K.j.j.6./ K > o 4.Q.K.K.z.j.u.5.5.5.5.5.5.5.5.5.5.5.r.",
"u.u.j.j.6.u.j.s.p.6.;.h ; O ; 7 9 7 < < O > 9 ~ O.Q l 9 < > > ; ; 7 y y k.Q.L.L.j.-.! 7    .Q.j.J.j.u.y.y.i.5.5.5.5.5.5.5.5.5.r.",
"j.j.j.u.-.p.j.u.u.7.4.~ 6 6 ; ; > > < > > > ; + o > 7 9 9 8 0 > O o . +  .(./.Q.Q.p.+.u + L _.K.L.J.u.y.y.y.u.u.u.i.5.5.5.5.r.r.",
"j.j.j.p.) p.j.u.y.7.p. .9 6 7 > > > > < 7 > ; ; > < > > > > > < > > o o + ~ /.).).!.:.I H < h.!.L.K.s.u.u.j.j.j.j.y.5.5.5.5.i.r.",
"j.j.j.6./ j.j.j.k.j.k.w.h 7 7 6 6 > ; ; > > > > < > 8 y 7 9 p y y 0 > ; @   ~ {._.U.;.J Y : h p.l.L.j.j.j.J.K.j.u.y.i.5.5.i.y.y.",
"j.j.K.+./ k.j.j.j.L.k.h.O.8 7 8 8 6 > ; < > < 7 7 t t L ;.#. .X.] y 7 7 > o . 8.XXg.+.6.J.K 9 Q 4.p.j.j.J.J.j.f.y.i.i.y.u.u.f.u.",
"j.j.K.K / K.k.k.6.p.L.k.w.K > 6 0 9 7 ; > 7 7 t Q Q @.L.}.l.p.T. .9 > h y 9 o 8 _.j.6./.OXa.L { #.#.k.K.K.K.j.u.y.y.u.j.z.f.f.f.",
"j.k.p.y / K.j.L.w.! p.U.!.@.y 6 7 9 8 > < 6 t h #.8.-.{..X}.#.(. .1 ; ] @.h 9 + 8.L.j.{.XXN. .@.#.-.K./.L.K.J.j.f.u.j.j.f.f.f.f.",
"j.j.6.u / l.l.U.h.k K ~ ;.#.u t 8 7 t t 7 8 6 L O.~ w.w.M.@XM.Q @.> > y  .t t @ h l.!._.XX(.#.8.#.8.!.).L.K.K.L.K.K.j.j.f.f.f.j.",
"j.J.-.r K l.!.U.U.Q 9 8 > > 9 t 8 > ; t t t f  .;XU. .q.;.~ O.k L 9 7 9 k 7 7 O ; O.~. XXX(.#.a.+.;.!.).Q.Q.Q./.Q.W.K.j.f.j.z.z.",
"p.j.+.+ > #.U.U.U.@.6 6 > 7 0 8 y d < o 7 6 8 { q.h.Y. . .L g h h y s 9 7 ; 6 t k y L ~.OX#.w.U.O.;._. X).).).).).Q.L.K.J.K.j.u.",
"u.J.-.: I u / k.U.a.9 < > > 9 y d O.Y.L ; ; o > t 6 y @.h h 9 0 y 9 p 8 0 8 0 g -.6.d t 8.;.{.U.O.p.{. X{.{.}.).Q.L.K.K.J.z.j.y.",
"y.j.-.J F._ +.w.U.U.L > 7 ; > 6 h ]  .~ 8 ; O + o ; ; 8 h y 0 < 9 9 0 < 9 l ,.`.{.$XY.f ; >.XXa.;.!.{. X_.}.).Q.K.J.j.j.j.j.f.u.",
"s.j.y._ ` ' <.l.l.~.#.< < > > > > 7 8 ; > < : : o + + o ; < < < 7 0 9 9 a L L q.`.~.h.O.h f (.k.8._.{. X_.)./.Q.L.K.K.K.K.J.f.u.",
"j.z.j.G.<.6.<.k.M.k.O.h < 6 6 > < > O o i _ ` G.G.u.( H 7 ; @ 1 < # a x.c.A 0 @ 1 h s 9 g y Q 9.a. X_._.).)./.Q.Q.Q.Q.W.L.K.K.K.",
"L.L.l.u.t.L.p.w.~.U.h.0.t > < < ; > ; i ` I.+X#X#X+X<._ P K t > @ a >XlXkXB.# @ = x x # > t 6 > ;.XX_._.).).Q.W.L.W.W.W.L.L.L.L.",
"!.U.!.k.w.M.l.p._.XXOX_.h > > > > > < I ` I.G.I.+X_ : < > < ..v.R.8XzXlXgX3XR = = z z z 3 a 8 O 6 h.XX{.)./.Q.Q.W.W.W.W.L.L.L.L.",
"~.~.(.~.!.h.6.I.{.XXOX'.g 1 1 > > @ i J ` G._ I..X8 q 5 q B.kXzXzXzXlXjX<X%.%.o.= * x z c G A y o 7 U.{./.Q.Q.Q.W.Q.W.L.W.L.L.L.",
"_.^._._.[.^.:.H. XXXXXoXL > < > @ ; H H ` _ _ I.( @ 2 a -XlXjXgXfXfXjXdX3XY.0.(.T # * z z v b N y o k (.)././.Q.Q.Q.Q.W.W.L.L.K.",
"_._.[.[.'.[./.F./.[.XXoX~ > > 1 o 7 H i Y I U ( t # 5 b.xXgXsXdXaXiXaXfXlXaXOX<X..@ # * * z z 3 a y >  . X/././.Q.Q.Q.Q.W.L.j.j.",
"[.[.[.[.[._.[.P.I._.oXOX$.7 < > O r r i J H P H < # A 8XjXdXdXdXaXiXiXsXgXfXOXm.q # @ # * x 3 3 3 e T 9 8.{._.{._.)././.Q.K.s.y.",
"[.[.[.[.[._._.[.}.T.[.OXq.t 7 > > t < r r H J 8 , 2 3.fXjXfXsXsXaXiXsXjXjXsXn.B x * o @ = * 3 # a , 9 ..L m.XX X{.{._.)./.K.j.j.",
"[.[.[.[.[.'._.'.[.^._.^.n. .9 < < 8 < 7 7 H u 7 , # B.lXjXdXdXdXiXiXsXjXjX;XB v v z @ @ # # 2 # < a @ p [  .'. X{.XX{._.Q.K.J.K.",
"'.[.[.OXoX[.[.[._.'.oXoXoXa.L 7 t < < < < u t < # & %.3XdXjXjXfXdXaXuX3X-XA c A.S.c # o @ @ # % @ p e @ 8 } 0.XXXX X X_.L.J.s.O.",
"_.'.[.[.[.'.'.[.^.[.oXoX;XOX@.t 7 > r 7 < t t < , , @ > T N.].;X1X;X3XB.= * V.S.V.z % o @ @ @ @ @ < e 1 @ 9 ..,.m.`._.k.4.8.L . ",
"^._.'.[.[.'.[.^.m.[.oXoXOX<XY.h > ; r r < t t 8 n B V 2 @ @ # , , p R.x.# x G v c z # @ @ @ < @ @ > e < < @ h } l j g y a 0 > t ",
"_._.'.'.[.'.[.~.h.'.oXoX`.8.{ s > @ > : r 7 r < , @ $ o O 0 , # @ q [ l w * * x x x # 1 @   { 8.9 @ 8 9 1 1 < L y o 9 p t ~ k.T.",
"^._.'.'.'._.'.a.a.[.oX~. .g 9 > O > > < < r r # # o 1 , a a , # @ @ 1 x.E - # @ # # , , @ o L (.m.{ e e 0 8 0 < s Q #.4.k.P.K.j.",
"^.^.'.'.^.'.^.8.h.oX~.O.y 0 1 > O O > > < u > # 2 # , w w 2 , # @ @ o.0XE.# # , # @ 2 , O O h Y.(.`.%.9 9.Y.>.; Q _._.P.J.j.u.j.",
"~._.'.'.'._.^.8.;.~.0.g > < < 1 @ @ < > u i > # # , , , # , @ @ @ 5 Z.7XqXA # 5 = # 3 , @ @ k ~.`.(.q.h a.^.'. .t M.!.K.j.u.t.y.",
"l.~.'.'.'.^._.e.~ ~ L > > 1 @ 1 O > > r J u O , , , , , , , , , 2 N b.7XkXc.2 3 5 2 n , @ 1 h Y.Y.(.q.] M.~.(.M.s a./.j.u.6.6.6.",
"M.D.^.'.'.^.'.M.Q y 7 9 7 @ @ < 1 ; < J ( h   # 2 5 5 2 , 5 5 2 2 | :X>XkX=Xw 3 4 3 V @ O 1 L M.M.(.@.#.~.Y.(.(.Q k./.p.t.6.6.6.",
"M.M.~.^._.^.'.^.{ 7 9 y @ @ @ < 1 < P U 1.y . @ 2 5 3 5 5 w w w 4 V F E 3.| 2 3 4 4 n @ > < ~ M.Y.m.~ m.~.U.(.a. .~.L.j.y.6.6.t.",
"!.D.!.^._.'.[.[. .8 g 7 O o @ 1 > H U _ d.9   @ # 2 5 3 n M B n n w 2 # n n 2 # # 4 w o < g O.Y.Y.8.q.~.M.M.M.;.a.U.l.l.j.6.6.t.",
"!.D.!.~.^.'.[.~.K g 9 > @ O > < o < ( 1.:.<   @ # , 5 n B D C n n w 3 5 5 3 2   # 4 3 o <  .#.~.n.a.M.M.M.m.a.a.k.j.k.k.g.i.r.y.",
"!.D.D.^.U.a.@. .g 9 > @ @ o < 7 @ O _ <.X.>   o @ , 5 n Z C 3 w w n V N V w $ @ 5 n 2 o y >.>.Y.n.m.h.k.k.k.g.p.6.y.p.p.y.t.6.-.",
"!.!.~.a. .h 9 9 p 1 O o O o < < $ ; 1.<.U <   o @ , 2 n B n # # # , a S S e @ 5 3 n ,   p 9.>.U.n.h.h.p.p.y.y.p.p.u.y.y.6.6.p.p.",
"~.M.;.L h s 0 0 y > O o O @ > > $ ; X.J.P t   O @ # 2 4 n B B n 3 # , q w # # m 3 V ..9 < %.#.m.a.p.p.p.y.p.p.6.4.6.p.p.k./.L.4.",
"0. .K h y 0 @ > 8 > o O < @ O @ $ > ( |.U r   @ @ @ , 5 w M Z C M M n 3 3 n C m n N N.Y.h j ..M.p.w.6.p.h.;.Q h L  .4./..X Xp.O.",
"g L L y < > o O < O O < > O O @ @ $ P T.v.: o @ @ @ @ 2 5 n C Z M n M B Z Z M w M V e.XXY...y #.p.4.6.w.O.! Q h f Q 4./.k.~  .Q ",
"k Q s 0 > O O O > ; 9 < @ @ @ @ @ @ g U d.P + @ @ @ @ @ , 4 M C Z C m n n 4 w n B w 2.|.U.`.>.{ >.h.a.;.y.g.7.) Q ~ / 6.@X#.; O ",
"L g 8 @ o @ > @ O 7 t < < @ @ @ o @ @ P _ ( p o @ @ @ @ @ , 5 n Z W D B M M B D Z 3 | B.`.Y.Y.m.M.n. .+.L.&X$X/.-.-./.%X@Xh $ < ",
"L g 0 @ 1 1 < X o 9 t 0 @ @ @ @ o o o < _ U y @ @ @ # # # @ @ # 3 B D W D D W W n q A q %.Y.^.~.`. .K +.g..XwX!./ /.tXOXf + @ O ",
"g h y 9 > < @ X o 0 8 @ @ @ @ @ o @ # & t ( t , , @ , , , @ @ @ # 2 3 M D D C 3 # q N # # a v.|.U.4.p.l.p.j.@X-.) 2XOX6   O y ! ",
"h L g > j <   X o 1 $ @ @ @ @ @ @ @ , , @ P H s %.@ , 5 , # @ # 2 5 3 3 3 4 5 w w w S j T R e L %.L h f f ;.XX~ M.~.> > -. X$X.X",
"L g 7 < 6 o o o o o @ @ @ @ 1 1 @ , 5 3 = 1 7 P >.< # 3 2 , , , 2 3 n n m m M D F R [ [  .e.`.v.T , # @ . > h.p.m.> 8 k.sXsX*X%X",
"y ; > 1 X X o O o @ o @ % # # # , , q S A 2 @ : u y @ 5 5 5 2 , 2 4 n n B C E &.| T h %.m.M.;.;X3Xv.| 2.%.s w.@Xy f -.Q.&X.X}.2X",
"o > $ o o o o @ @ @ @ @ < s l s , # 1 ,.N.9 v.x.9 O 1 2 4 3 5 2 2 3 w m Z =.b.c.} j [ Y.(.!.;.#.1X1X9XrXY.+.p.{./ / ) p.OX2X.XW.",
"> @ o o o o O o @ @ @ s #.q.a.n.>.p # < s >.oX].p   @ , q 5 5 5 2 4 3 C Z.7X9X].T [ ..8.l././.M.Y.<X6XY.) j.}.%X$X-.@.p.{.%X).&X",
"@ o o o o o o o @ > k 8.a.e.a.n.m.q.[ } 9.'.`.] o @ @ # , 2 5 2 5 4 F =X0XiX1X,.[ %.o.A ] 6.L.(.l.oX|.-.6.j.OX4XuX(.a.-.k.}..X.X",
"o o @ O o o o o 1 L 8.0.q.q.a.n.n.m.N.Y.(.Y.Q O @ @ @ , 2 , 2 5 n *.:XpXiX3X;XN.;X7X=XE.3.X.6.P.!.0.@.K h h g 8.6XwXg.;./..X&X5X",
"@ @ @ @ @ @ @ @ l 8.8.a.e.q.a.m.m.m.N.Y.a.h O > @ @ , , , % 2 B b.9XdXpX9X1X>X3X3X;X1X1Xv.d./.U.6.t.-.u X   o . L 8X6XQ.@X*X5XXX",
"2 # # # # , # , $.8.8.q.q.e.h.m.m.N.v...9 @ 1 1 , , , 2 # 3 &.=X9XfXpX9X1X-X=XB.2.*.o. .j.2X5Xk.:.d.K.K.-.8 > @ . j fXhX4X[.>.j ",
"5 3 5 3 5 = 2 } >.8.8.8.q.q.#.{ { Q y > @ @ @ 1 , , 2 2 N 3.>XiXpX8X;X].].B.o.3.=.| 9.OXuX$X}..Xp.s.@Xu.<./ ! 6.@.O ..|...q 2 5 ",
"h a S q # , j O.#.;.8.8.0.{ 0 y L 0 @ > O @ @ 1 , , 5 E C.>X7X1X;X-X;X>X1XB.2.c.x.(.5XtXtX&X}.W.%X X/. XK.l.<X.X.Xn.o X @ @ 1 # ",
"{ h g h L ] Q {  . .8.0.{ ; $ } g > @ O @ > 1 , 2 w &.B.B.-X-X;X1X3X8X8X;XN.].oX6X4XtXtXyX4X.X XtX4X2XwXU.iX.X5.P M.w.> 1 > < 2 ",
";.#.#.>.>.#.] g L >.q.Q + . o O + @ @ @ @ @ , 2 V &.b.=X1X3X9XrX8X8X3X1X3X8X6X6X4X2X5X4XtX%X&X&X4X%X|.g ].8Xg.4./ K OX6.> < < , ",
"#.;.#.O. . .{ { ,.9.k + . + @ > @ @ @ @ # 5 N E =.C.>X8X8XiXiX3X|.a.@.L L h L m.6XyX$X5X4X.XtXtXtXq.a a [ p 1 > t f l.4X+.> < < ",
";.O.~ $.#.;.,.9.%.9 O O @ > < 1 9 e q w A &.=.3.E.;X3X6XiX8Xm.@.~ K d g y 9 9 8 ~ @X4X%X%XQ.*X$X>.a a 8 @ @ > > O >  . Xj.d > < ",
"#. . .@.@.#.,...9 @ > > 1 < 8 j | | | *.c.B.c.C.-XXX$XaX6Xh.@.O.~ ^ ^ Q h g s g y y h.tX5X)./.@.8 < > 1 < < 1 > > o y {.u.+.f > ",
";. .$.$.@.%...y 1 > @ 1 < e T | o.*.2.C.E.B.B.=X].rXiX`.+.n.h.~ Q K g y 0 9 8 0 > 6 > N.6XiXx.o @ O < < > 6 6 7 6 > O j.W.4.) ;.",
";. .h y h h 9 < 1 1 > < a R [ | o.*.v.B.b.c.C.x.`.pXm.^ ;.O.{ { f > @ > L { h t 8 9 8 ; n.1X1 o < 7 9 f f K h 9 9 0 o / L.W.{.Y.",
"#.#.Q h h 0 1 @ 1 1 8 j [ [ [ | o.x.R.R.*.b.b.e.3XN.y { h g h < 1 < 0 ~ / ^ d y 9 9 9 0 l Q d K / ~ ! / ) ~ s < 1 > X h p..Xe.O ",
"#.;.#.] 9 > O O 1 8 j R [ [ | o.,.N.].x.*.b.,.1X,Xh h y f y @ 1 8 0 K / ~ ^ K h y 0 7 > t 6.u.5.K.7.5.p.~ 0 , @ o o . y 6Xw.O o "
};
