/* XPM */
static char *d89e1ca6893e47a0a834c4cec205bbf7[] = {
/* columns rows colors chars-per-pixel */
"64 64 256 2 ",
"   c #150A0E",
".  c #190C0E",
"X  c #13060A",
"o  c #150B12",
"O  c #1A0D11",
"+  c #150D19",
"@  c #1C1215",
"#  c #1C1219",
"$  c #191A16",
"%  c #100A0A",
"&  c #221215",
"*  c #22151A",
"=  c #251A1C",
"-  c #291A1B",
";  c #351D17",
":  c #2D1909",
">  c #17261A",
",  c #2B221D",
"<  c #37231A",
"1  c #3A330F",
"2  c #1A1C30",
"3  c #231C2A",
"4  c #2A1E2B",
"5  c #291B23",
"6  c #341C27",
"7  c #351A38",
"8  c #1C2739",
"9  c #162D2F",
"0  c #25222D",
"q  c #2A222D",
"w  c #2B2827",
"e  c #33242C",
"r  c #342A2C",
"t  c #382727",
"y  c #39322C",
"u  c #242434",
"i  c #2B2533",
"p  c #2C2935",
"a  c #2D2A3A",
"s  c #27273A",
"d  c #332C35",
"f  c #332D3C",
"g  c #372934",
"h  c #3B333C",
"j  c #373637",
"k  c #283431",
"l  c #502C15",
"z  c #452928",
"x  c #46342B",
"c  c #583828",
"v  c #462A37",
"b  c #473839",
"n  c #563937",
"m  c #522B2D",
"M  c #693D30",
"N  c #50241F",
"B  c #324238",
"V  c #494538",
"C  c #594335",
"Z  c #564228",
"A  c #684839",
"S  c #704D32",
"D  c #785D31",
"F  c #1B3147",
"G  c #282C45",
"H  c #2D334A",
"J  c #273447",
"K  c #333343",
"L  c #373849",
"P  c #2B3A56",
"I  c #343B53",
"U  c #383B57",
"Y  c #332B4F",
"T  c #323968",
"R  c #492643",
"E  c #483B44",
"W  c #573A48",
"Q  c #503355",
"!  c #633B48",
"~  c #411E48",
"^  c #39434B",
"/  c #2B4458",
"(  c #34445C",
")  c #39475A",
"_  c #375559",
"`  c #2C4866",
"'  c #384966",
"]  c #3A546B",
"[  c #334975",
"{  c #3A547A",
"}  c #385876",
"|  c #2A576F",
" . c #3A6577",
".. c #376872",
"X. c #37615E",
"o. c #494548",
"O. c #564948",
"+. c #57554B",
"@. c #45475A",
"#. c #5A5756",
"$. c #4E5452",
"%. c #674848",
"&. c #655648",
"*. c #765946",
"=. c #635957",
"-. c #775757",
";. c #6F4A51",
":. c #5A6459",
">. c #58725D",
",. c #736852",
"<. c #454B65",
"1. c #465469",
"2. c #485977",
"3. c #545C76",
"4. c #50526B",
"5. c #725466",
"6. c #576569",
"7. c #476778",
"8. c #56657A",
"9. c #537371",
"0. c #676666",
"q. c #786C66",
"w. c #666B76",
"e. c #71786F",
"r. c #875730",
"t. c #936538",
"y. c #AE7831",
"u. c #885D4C",
"i. c #876547",
"p. c #876857",
"a. c #8A7658",
"s. c #977759",
"d. c #93704D",
"f. c #A47B56",
"g. c #A37045",
"h. c #997667",
"j. c #89716C",
"k. c #A87C71",
"l. c #738A74",
"z. c #74A67F",
"x. c #B4895A",
"c. c #978568",
"v. c #8F8B71",
"b. c #A98768",
"n. c #AD9468",
"m. c #B29072",
"M. c #B3A679",
"N. c #97966A",
"B. c #CC985A",
"V. c #C9996B",
"C. c #CCA473",
"Z. c #CAA957",
"A. c #3E5A83",
"S. c #384782",
"D. c #3D6E83",
"F. c #425C8A",
"G. c #476787",
"H. c #566984",
"J. c #4B7586",
"K. c #587788",
"L. c #486A93",
"P. c #4D7A95",
"I. c #557A98",
"U. c #516D94",
"Y. c #647789",
"T. c #6E758F",
"R. c #577AA4",
"E. c #8D798A",
"W. c #A57F8C",
"Q. c #588798",
"!. c #52918F",
"~. c #6A9789",
"^. c #688797",
"/. c #728C8D",
"(. c #58A796",
"). c #79A789",
"_. c #71AC9A",
"`. c #5A87A6",
"'. c #698CA7",
"]. c #7795A7",
"[. c #6F94AE",
"{. c #79A6A8",
"}. c #79A9B6",
"|. c #6EAEAE",
" X c #55AAA7",
".X c #75C8AC",
"XX c #79B6CE",
"oX c #7D9DC7",
"OX c #77C7D7",
"+X c #79CFE4",
"@X c #8C8E8F",
"#X c #AA9488",
"$X c #87A988",
"%X c #88B595",
"&X c #93AF93",
"*X c #BAA889",
"=X c #B1B18F",
"-X c #8599A8",
";X c #8B95AF",
":X c #AC93A4",
">X c #95A7B7",
",X c #8FB0B3",
"<X c #ADB1B2",
"1X c #C49C8A",
"2X c #D9BB98",
"3X c #CAAF8E",
"4X c #E3BE95",
"5X c #CEB7AB",
"6X c #98C39B",
"7X c #90CCB0",
"8X c #B1CFB3",
"9X c #A6CEA6",
"0X c #D1C795",
"qX c #D8C7A6",
"wX c #CFD1B2",
"eX c #E9D4A8",
"rX c #EAD9B3",
"tX c #F5DAB7",
"yX c #EACBAE",
"uX c #CFE2B8",
"iX c #F8E4B9",
"pX c #EFC99D",
"aX c #8EB3CD",
"sX c #AAB7CD",
"dX c #C8BDC9",
"fX c #93CCCC",
"gX c #B7D5D7",
"hX c #AFCDD0",
"jX c #B7E8D4",
"kX c #8CD1E9",
"lX c #B1D1E8",
"zX c #A5E3DA",
"xX c #CED2CE",
"cX c #EBD9CA",
"vX c #DAE7DB",
"bX c #CDE8CD",
"nX c #EBE6C9",
"mX c #F9E7C8",
"MX c #FCF3C9",
"NX c #EBEAD8",
"BX c #F6EAD5",
"VX c #FDF7D9",
"CX c #EBF8DA",
"ZX c #CDD7E6",
"AX c #D9E9E8",
"SX c #DCF6F7",
"DX c #CCEFED",
"FX c #E9E9E6",
"GX c #F4E8E5",
"HX c #E6F5EA",
"JX c #FEFDE2",
"KX c #F8F7E9",
"LX c #EAFAF5",
"PX c #F7FCF6",
"IX c #F5ECF2",
"UX c #F0DDE3",
/* pixels */
"u u s s s 8 8 2 s s s G 8 8 8 8 G G G G G G H H G Y H H I I U ( ( ' ' ' ) ) ) _ ' ' [ T Y Y Y Y s p p p p p u u 0 p f L a f f a ",
"u u u u s s 8 8 s K J G G J G G G G H J H H H H Y Y I I U ( ( ) ' ' ' 1.1.<.) / / / T T T Y Y Y s p p p p p u 0 3 p f L p f f p ",
"8 8 u u s s s u s G K J H H H H H H H H H H H H U U U U ) ) <.' ' ' <.<.<.' ' ) 8.1.' T T T Y G s u u u u u u 3 3 p f K p f f i ",
"u u u u G s s s 8 8 s H I I I I I I I I I I I I U Q @.@.<.<.1.1.<.<.<.' P ( 1.3.@XT.4.T { ' Y G s u u u u u u 3 3 p f K p f f i ",
"s s s s G s ) w.K.K.7./ I H I <.4.U U U U U U ) @.<.4.4.3.3.3.3.1.I J ) ) 1.Y.<XxX@X8.P 2.' Y G u u u u u p u 3 u p K f u a f a ",
"a a s s s @.8.8.K.^.{.].' ) ) ( 3.4.) @.) ) <.<.U U 4.3.3.8.4.' ' T U ' 1.8.>XvXxXv.^ 1.G.' G G u u u u u p u 3 0 p L f i f f a ",
"a a a a G K K G G J ^ Y.^._ ( ) ) Y.<.U <.<.4.4.4.s G ) 3.<.I P [ S.{ ' ) -XvXbX3X,.^ 9.K.` 8 G u 0 3 3 0 i 0 3 3 a L a i a f a ",
"G G G G K K K L I I G H K.K.] ] ' 3.T.3.4.4.3.3.3.I G G G P ( ' [ F.2.) ^ &XCXwX*Xa./.~.Q.` 2 G 2 3 3 3 0 i 0 3 3 d L i i a f a ",
"8 J H J K f K L U U U I P K.8.1.4.1.H.;X;XT.3.H.8.<.G Y H H U 4.H.8.w.o.&.=XVXeX3Xc.7X(. X| 9 2 2 3 3 0 0 h i 4 3 i K f i i a f ",
"J J J H K K K L U U U I P 2.K.3.3.3.3.3.-XT.3.2.( ( P H P P U ( Y./.:.V a.rXMXrXpXc.7X.XOX!.F s 3 3 4 i h L p 4 3 4 d h i i i f ",
"P J J H H L L U I U ' U P ] T.H.H.H.8.3.3.3.<.' ' ] ' F P ' ] / _ l.+.A s.tXeX3Xm.,.7XfX(.J.J f 3 4 q i h L i q 4 3 i h p q p d ",
"P P P J H L L U I U ' U ' ] 7.Y.T.Y.8.8.' ' ' ' { 2.{ P G ]  ...9.l.&.C d.2X3Xc.a.l.hX(.9 9 p p q q i i i d 4 i 3 3 4 d w q w d ",
"` ` / J P ) U H ( ] ' ' ' ' 7.^.^.^.1.' ] ' ' 2.2.G.G.G.G P Q.!.~.l.&.*.h.m.2Xp.,.0.%XX.J ^ j $ q i i d q q q q i 3 3 r h r t q.",
"` ` ` P P P I ' ] ] ' <.' ]  .^.^.^.] ' ] ' [ 2.F.A.G.I.3.F ..,X,Xl.V O.p.cX1X-.O.+.6._ 4.@.9 > 0 i i i q q q q i 3 3 w j b &.<X",
"` ` ` P / P ( P ` ] ' ' ' }  .P.{.-X] ] } [ { F.A.A.L.oXsX] / ,XhX-X0.0.E.:Xj.E v b h ^ @.j 9 > 0 q q q q q q q i 4 3 w y =.=XcX",
"T ` ` T ` ` ( 7.K.'.T.Y.2.] G. .,X,X7.] } { { F.F.L.P.oX}.'.' -XK.^.w.w.T.:XE.5.v v E d E 6./.%Xo.q 4 3 q q q q i 5 = , y v.VXnX",
"[ [ [ [ ` ` ] H.^.;XsXsX;X] J...,XlX7.] { G.A.F.R.L.R.[.aXaX'.` ^.>XH T.@XdXE.W 6 g E o.@.k k B d q 3 3 4 i i q w - < : 1 c.VXnX",
"[ [ [ [ [ 2.G.7.2.G.].sXT.2.I. .].DXK.] F.L.A.L.L.L.[.XXXXaXaX'.;X;X<.E.:X:X:XW v v R o.o.e.o.+ q q 4 3 3 q i e &.v.3X2X*XqXMXnX",
"[ [ [ [ { G.G.] ` 2.H.Y.H.G.Q...K.DX^.} G.U.F.L.L.R.XXkXXXXXaXaXsX;X/.<XdX5X:X5X;.v W W g h o.q q q 4 3 i q L =.j.k.#X3XyXMXVXmX",
"[ [ [ { { 2.{ ` ` ] 2.H.U.J.P.|  .DX[.} G.I.F.U.I.[.aXkXXXXXXXaXsXT.>XxXUXIXGXUXW.5.! W 5 5 5 i i q 4 3 i L E b ! -.u.p.p.c.3XtX",
"[ [ [ { [ { { { | ` } G.G.P.Q.D. .fX}.J.I.`.L.R.R.oXkXkXOXOX+XkX-Xw.ZXFXGXGXUXIX5X5.5.v 6 6 4 4 4 q i d f h L O.O.n x n *.h.k.s.",
"` ` [ { { { A.A.} | } G.J.P.Q.D...aXXXP.`.`.L.R.[.aXkXkXkX+X+XXX7.w.FXFXGXKXPXIXW.;.W 6 6 4 4 4 q i d f E E o.g v t 6 t ; n 3X1X",
"` ` ` { { A.F.F.D.| } G.I.P.Q.!...}.XX`.'.P.R.`.aXlXkXkXkX+X+XXXY.w.FXFXGXxX5X#X;.v e 5 4 4 q q p d h h E $.h g v t e t 5 n qXJX",
"` ` [ { { A.F.G.L.} } G.Q.P.!.!...[.aX`.[.I.`.[.lXlXlXfXkXkXkXkXhXw.dXGX5X*.C m v 5 + 4 4 q 0 i d d h b E v E E v 6 6 t t &.cXVX",
"} } } { G.A.L.I.L.} } } [. X X X!.|.XX`.'.Q.].aXlXgX@Xj.&XfXzXfXlX>X=.p.i.i.s.%.b 4 5 4 q q q p h g b %.m v b b v v z z z ,.BXVX",
"} } } } A.{ G.U.I.} }  .'.|. X X!.{.}.Q.[.].>XhXgXxXb.u.*Xv.,XfXhX/.b z m.b.S z b e 4 4 q q q d b b n A N c n n n m m N m p.BXVX",
"} } } } } } G.U.`.P.}  .Q.|.|.|.|.}.}.'.;XaXgXAXDXxXm.S B.n.h.<XxXe.&.p.p.N m O.b g 5 4 e e e g v n A M S S S A j.%.m z c c.VXJX",
" . . . .} }  .G.I.[.} 7.J.Q.fXfXfX7X,X}.aXgXAXSXDXxXm.l x.B.f.u.@X+.j.h.! v v W W g 5 6 e e e z m A S M i.s.m.3XqXa.c l c m.VXVX",
"7.7.J.J.^.7.} 7.G.].].8.K.^.,XzXzXjXhXlXlXZXAXAXSXDXhX@Xn.B.B.r.C V C z R Q R 5 j.b - t y t t z N *.r.i.m.3XeXmXmXp.c c A *XJXVX",
" .7.7.7.K.aXJ.} K.].>X-X-X-X,XjXDXDXhXhXZXDXHXLXLXDXDXgX*XV.B.g.l x -.v 7 ~ 7 6 E.v.. t x t t n M u.f.m.2XrXVXJXmXd.Z c S 3XJXJX",
".. .7.K.7.{.fXK.K.].sXsX/.>XgXgXjXDXgXgXDXSXLXLXLXSXDXDX0XZ.B.r.l W 5.R ~ 7 g v O.=Xz x x x C &.S b.C.4XtXBXKXPXiXd.S Z *.5XJXJX",
"/ _ 1.7.7.K.aXaXK.7.-X>X@X>X<X,X,XgXgXDXSXHXLXPXPXSXDXHX0XZ.y.l l ;.Q ~ Q v R %.-.p.x c C n A ,.*.M.0XtXmXBXKXPXrXs.D S i.qXJXJX",
"j L ^ ^ 6.8.].>X^.7.8.8./.>X>X<XxXsXZXZXSXLXLXPXPXLXHXNXeXx.t.l s.%.v 7 R R %.5Xh.S A A &.A h.s.a.3XqXmXBXGXPXKXqXd.D S f.mXJXVX",
"j h ^ ^ 1.) Y.-XY.8.8.3.K.-X-XsXZXsXsXAXLXLXPXLXLXLXKXBXmXf.t.g.#X! z v R v ;.yXk.S *.*.*.i.V.b.s.0XrXnXnXJXNXBXtXd.r.i.b.mXJXVX",
"j h L ^ 6.1.2.Y.K.H.8.' 8.^.Y.>XZXxX-XZXSXLXLXHXHXHXKXKXyXc.3X2X2Xn m W ! ! ;.5X3XS s.d.s.d.b.4XM.2XrXiXMX3Xs.m.tXC.t.r.1XmXVXVX",
"j h L ^ @.8.) K.K.H.8.P H.^.].-XsXZX/.hXSXHXHXPXvXFXHXKXcX5XVXrXyX%.! ;.5.;.n m.yXd.s.f.d.m.b.tXiX0XrXMX2Xt.d.r.x.tXx.d.3XmXVXJX",
"j h L ^ ) ) ) 7.8.8.1.P ^.'.^.-XsXsX/.>XPXHXAXPXLXvXvXKXPXJXBXcXmX*.m ;.-.;.*.s.iXf.x.m.x.n.n.3XMXrXeXeXc.f.g.g.r.4XpXd.2XMXmXJX",
"j j L ^ ^ / ) ] 8.H.I / ].[.Q.}.>XsX@Xw.IXLXAXHXPXPXLXPXPXKXGXBXmX*.m ;.j.p.i.D iXC.x.V.x.m.n.3XMXMXnX3Xn.m.m.x.t.g.iX2X2XVXVX5X",
"d j j L ^ P ) ( 1.2.J 2.Q.}.|.}.,X>X;X4.<XPXHXAXHXvXFXPXLXLXHXGXqXp.A j.1Xa.s.d.eXiXV.V.V.V.n.*XnXHXCX5XnX2Xm.x.g.g.eXMXeXVXmXm.",
"p d j K ) ( ' ` ( ( P K.}.|.,X|.,X-X>XT.w.IXHXLXxX@Xe.<XHXHXLXKX*Xp.*.#X5Xa.m.C.eXMX4XC.C.C.n.=XuXvXHXbXcXVXyXb.f.f.M.eXMXMX1Xm.",
"p d d a U ' [ } ] F / I.[._.|.fXaX>XZX<X$.<XAXLX<Xo.V 0.8XHXPXJXm.*Xq.cXBX#X1X1X4XmXiX3XM.M.M.uXbX8X&X$X&X8XNXNX*Xn.M.qXMX2X1X3X",
"d d d d U ' A.G.7./ | I.Q.!.!.{.gXgXDXgX6./.gXLX&Xe.$.:.e.8XCXwXc.wX=XxXNXBX1X3X3XiXVXrXM.N.uXuX&X$X$X$X&X&X9XbXuX0XqXrXrXqXqXtX",
"d g g d a 1.G.G.G.` G.Q.}._.!.!._.,XfXfX|.|.,X{.{.{.hX&X@Xq.qX=Xv.xX8X6./.<XvXwXwXCXJXCXuX8X%X).).).%X%Xz.%X6X6XuXwXwXrXmXmXVXJX",
"r g g g f I { U.7./ J.K.^.~.~.~.~.).(.z.!.(.!.!.7.7.{.SX8X=Xc.a.#XxX/.9.~.~.&XbXbXbXbX8X8X%Xz.).%X9X9X6X$X$X6X8XuXbXnXBXVXBXmXtX",
"v g t y h H ' I.2._ 9.$.6.$.:.e.l.z._.7X.X(.|.|.(.!.!.bXKXwX*Xc.=X&X~.{._._._.%X%X%X$X$X$X%X&X&X=X=X&X&XwXwXuXnXJXJXJXBXyX1Xk.h.",
"z z t g h K P H.] _ $.B j r j V :.$X).).7X7X.X.X(.(.!.hXHXNXqXM.=X&X_.7XfX7X7X9X%X9X8X6XN.N.l.v.c.c.*XqXVXVXVXVXnX5X#Xc.h.u.A M ",
"n O.C O.o.L I 7.2.1.k k k k d y y w :.l.l.9X7X7X.X_.~.7XLXPXJXxX8X6X8XDXjXjXuXuX=X=XN.,.,.,.c.M.3XrXMXmXeXyX3Xn.q.+.V b x x c n ",
"-.j.j.j.=.@.) 8.] 8.k k k k d w w j y V :.>.%X8X7X7X_.7XDXHXKXHXuX8X8X).$X$X&X=X=XN.,.,.a.M.2X2Xm.c.a.a.*.A Z Z V V b x x y < ; ",
"i.h.b.j.0.0.Y.8.` '.^.J 9 0 w w w r w , $.>.>.7XzX7X7X,XbXbXxXxXuX0Xv.N.M.M.=X=X0X0XqX3XM.n.d.S x x x b C b x x y t , , @ = $ $ ",
"u.i.c.j.0.e.4.G ] Q.^.^.w.6.k w w w w > k >.l.).zX7X7X7XjXhX8XxXwX=X0XqXrXMXJXnXqX3Xb.i.S Z l l t r r d e w 5 - - & & @ . $ o $ ",
"b.p.,.q.j.w.a s 7.Q.Q.^.-XsX<X6.r w w > $ B /.9.7XzX7X8XbXuXwXxXwXnXnXnXnXNX=X&.&.C l < ; ; ; : - * * * * * * & & & O O @ $ o j ",
"h.b.p.q.j.=.j K J 9.^./.-XsXZXvX#.r y y > $ $.>.~.jX7X&X&X=X<X&X=X#Xq.q.v.0., , ; < < ; ; ; : & O @ @ @ O O @ @ & & & @ * @ $ #.",
"j.h.q.&.=.O.b j k $./.>XxXxXZXPX5Xy r r w j :.l.l.).l.l.l.l.@Xv.q.=.O.=.#.t & - * & & & & & & & & * * * * * * * @ @ @ @ @ o , @X",
"q.-.x y y y t w w j j @XFXNXNXKXGXq.O.=.0.e.e.l.l.e.>.:.0.#.=.0.0.=.=.+.t - = - & * * = = * * * * * * * O O O O @ @ @ @     $.@X",
"0.b t t , , , , t y +.#XBXnXrX5Xj.O.b y j w y o.:.:.#.$.$.#.O.b O.O.O.y @ - , = * * = * * * * # @ & @ @ @ @ @ @ O O O O X $ e.0.",
"b - r - - , t t O.j.*XqXqX*Xa.Z < , t = = $ $ $ w $.$.#.#.O.b b b #.b - - * = - - = = * * * # # @ @ @ @ O O . . . .     X o.0.o.",
"5 = w 5 e w b =.j.j.j.j.-.C z t t w , - = = $ @ o = d o.O.b E b O.E - * & & @ @ @ # # @ @ O O O O O o o           X   X @ O.o.o.",
"w w w w r b #.b t t t z t t t - w - = * @ @ @ @ # O @ w E O.E b O.e w * & O O O O O O O o o                     X O   . b b e * ",
"e r 5 w = E r = - - - 5 - 5 - & - * @ @ @ @ @ @ O = *   * E o.O.r * - @ O O . . O O o o o   o o o o O O O O O O       w r * O   ",
"w 5 * = r e * O * * & @ * O O * @ O   o O @ @ @ = @ o o @ w b h @ & X . O O . . O O o o o       # # # @ @ @ @ @ X O w 5     X O ",
"# * # # # # # # # # # # @ @ @ @ # # # # @ @ @ @ @ @ o o O O O O O . . . O O O . O O o o # # # # # # # # * O   X @ 5 = X         ",
"@ # @ @ # # # # + + # # # # + + # @ @ @ @ @ @ @ O o     O O O O . . . . O O O O O O O O O @ @ @ o o o o     O = 5 O             ",
"o @ o o o o o o o + + + + + o o o o o o o o                 O O . . . . O O O O O O o o o o o o o         O @ = X     O         ",
"  o     o o o o + o + + + + o o o o o o                     O O . . . . O O O O O O o o o o o o o o o o * 5 * X   X X           "
};
