/* XPM */
static char *_ef913a92d4b4d028f95a7f926c2ac89[] = {
/* columns rows colors chars-per-pixel */
"64 64 256 2 ",
"   c #2B2938",
".  c #312D3B",
"X  c #33313C",
"o  c #2A2930",
"O  c #232030",
"+  c #2C2C45",
"@  c #322D46",
"#  c #2E3245",
"$  c #333344",
"%  c #34334B",
"&  c #3B3A4D",
"*  c #38384B",
"=  c #2C3554",
"-  c #3C3C54",
";  c #3C3D5B",
":  c #363855",
">  c #2E2D53",
",  c #3A3D63",
"<  c #383E7A",
"1  c #423C4D",
"2  c #433E54",
"3  c #433C5B",
"4  c #462F41",
"5  c #413B64",
"6  c #3B4159",
"7  c #3D414C",
"8  c #3A4465",
"9  c #3C4B76",
"0  c #444354",
"q  c #44435C",
"w  c #4C4A5C",
"e  c #48475A",
"r  c #4E4B5B",
"t  c #444562",
"y  c #464A64",
"u  c #4A4A66",
"i  c #4B4D6B",
"p  c #46496A",
"a  c #514D63",
"s  c #524D6B",
"d  c #56416A",
"f  c #4D516D",
"g  c #4D5266",
"h  c #545264",
"j  c #53546C",
"k  c #58586B",
"l  c #4B4D73",
"z  c #474D78",
"x  c #4D5273",
"c  c #4D547A",
"v  c #4B5979",
"b  c #535573",
"n  c #5B5574",
"m  c #545A75",
"M  c #5A5B75",
"N  c #52557A",
"B  c #545A7C",
"V  c #5B5C7B",
"C  c #5C567C",
"Z  c #544F76",
"A  c #635B7B",
"S  c #6F5770",
"D  c #5C617B",
"F  c #5A6473",
"G  c #65647B",
"H  c #6F6777",
"J  c #3D4F8E",
"K  c #4B5783",
"L  c #555B82",
"P  c #5A5D83",
"I  c #5A5E8C",
"U  c #555A88",
"Y  c #4D5791",
"T  c #665D87",
"R  c #6C5E89",
"E  c #5B6384",
"W  c #55638B",
"Q  c #5D658B",
"!  c #596889",
"~  c #586696",
"^  c #5C749C",
"/  c #4B6790",
"(  c #626383",
")  c #62658B",
"_  c #646B8C",
"`  c #686987",
"'  c #746B8A",
"]  c #68728B",
"[  c #72738D",
"{  c #78788D",
"}  c #646C93",
"|  c #676B96",
" . c #6B7395",
".. c #6C759C",
"X. c #6D799C",
"o. c #667597",
"O. c #737493",
"+. c #72749A",
"@. c #737B9C",
"#. c #797A97",
"$. c #736B96",
"%. c #576AA4",
"&. c #5975A9",
"*. c #5878B7",
"=. c #4B6CA8",
"-. c #646CA7",
";. c #6D7BA3",
":. c #6978A8",
">. c #737CA3",
",. c #747DAA",
"<. c #797BA7",
"1. c #6677B6",
"2. c #747CB5",
"3. c #5F58A5",
"4. c #5B7CC6",
"5. c #5A78D2",
"6. c #6D7ACF",
"7. c #867999",
"8. c #8C6E8C",
"9. c #867CAE",
"0. c #798299",
"q. c #62809C",
"w. c #5B83B9",
"e. c #5D93BF",
"r. c #6B81AA",
"t. c #7482A3",
"y. c #7B83A4",
"u. c #7483AB",
"i. c #7C83AB",
"p. c #7C8AAD",
"a. c #7588AC",
"s. c #6885B9",
"d. c #7484B4",
"f. c #7386BA",
"g. c #758ABC",
"h. c #7A8BBB",
"j. c #7C87B4",
"k. c #7B92BB",
"l. c #619FB4",
"z. c #6FA8BD",
"x. c #5D85C3",
"c. c #5794D0",
"v. c #6383C3",
"b. c #6C8CC9",
"n. c #6889C6",
"m. c #748CC4",
"M. c #7B8DC4",
"N. c #778BC8",
"B. c #6A94C9",
"V. c #7493C5",
"C. c #7B93C4",
"Z. c #7493CB",
"A. c #7A95CB",
"S. c #7A9ACA",
"D. c #6A97D4",
"F. c #789AD3",
"G. c #708CD9",
"H. c #55AED4",
"J. c #78A4D6",
"K. c #76A8CD",
"L. c #759CE4",
"P. c #59A5E3",
"I. c #66A9E9",
"U. c #77B6E7",
"Y. c #6DADEB",
"T. c #5C97E5",
"R. c #77C9F2",
"E. c #86879C",
"W. c #8F8E9B",
"Q. c #848AAD",
"!. c #8788A7",
"~. c #938BAA",
"^. c #8891AD",
"/. c #9896AD",
"(. c #8385B4",
"). c #838CB3",
"_. c #878BB8",
"`. c #8492B4",
"'. c #8593BB",
"]. c #8A97B9",
"[. c #979AB8",
"{. c #9C89B7",
"}. c #A19DB4",
"|. c #A98CB8",
" X c #98A3B9",
".X c #8EA6AF",
"XX c #A5A5BB",
"oX c #A5B2B9",
"OX c #838AC2",
"+X c #859AC4",
"@X c #8B9BC3",
"#X c #8698C8",
"$X c #939DC3",
"%X c #969BC7",
"&X c #8D9BD3",
"*X c #8BA2CD",
"=X c #88A5CA",
"-X c #9CA4C4",
";X c #93A5CB",
":X c #9BA9CC",
">X c #97A5C8",
",X c #8CA4D2",
"<X c #87A6D6",
"1X c #9CACD3",
"2X c #97A7D7",
"3X c #8BB4DB",
"4X c #99B5D8",
"5X c #9DB3CA",
"6X c #A4ACCC",
"7X c #A5A9C6",
"8X c #A6B4CB",
"9X c #A4ACD4",
"0X c #A9B8D7",
"qX c #B5BCDA",
"wX c #B6B5C8",
"eX c #89ADE2",
"rX c #88B9E8",
"tX c #98B7E4",
"yX c #83BBFA",
"uX c #A6B9E3",
"iX c #B7BCE2",
"pX c #8696E3",
"aX c #CABFDB",
"sX c #B8C6DB",
"dX c #B2C9D6",
"fX c #92CFEB",
"gX c #BAC9E6",
"hX c #A6D2E8",
"jX c #AFD1EF",
"kX c #B0E4F4",
"lX c #8DD9EC",
"zX c #C2C8DA",
"xX c #C2D2DF",
"cX c #C6D7E8",
"vX c #CBDAF3",
"bX c #CDD5EC",
"nX c #E4DEEF",
"mX c #CDE4E9",
"MX c #D6E7ED",
"NX c #CAE6F7",
"BX c #D5EAF4",
"VX c #D7E9F8",
"CX c #DCF3FC",
"ZX c #DBF4F7",
"AX c #D0F2F2",
"SX c #E3EEF8",
"DX c #E4F3F4",
"FX c #E3F4FC",
"GX c #E5FBFD",
"HX c #ECFBFD",
"JX c #EAF6F8",
"KX c #F4FEFE",
"LX c #FAFEFE",
"PX c #F4F8F8",
"IX c #E0EBED",
"UX c #CDE0DC",
/* pixels */
"t t y y u i u u f f f c N L U I E W W ~ U | ].GXAXjX6.1.^ v.:.1.:.d.s.f.g.M.M.N.m.Z.D.J.B.eXb.4.s.Z.F.Z.n.v.x.4.1.D.n.*.1.2XhX4X",
"t y y y u u u u p p f c c L U I } W ~ W ~ I  XHXNXrXY.n.i._.;.S.:.s.s.f.g.m.M.M.C.A.F.D.B.eXF.n.s.b.Z.b.n.v.x.4.1.x.4.4.s.uXjX4X",
"y y y y u u y y y i f x c N L P I U ~ W -.W 8XAXlXlXY.x.:.<.:XX.f.f.f.s.f.m.M.M.k.A.F.D.B.<XF.m.v.n.b.b.n.v.v.*.s.4.4.v.A.jXjX<X",
"y y y y u u y y p i f x x c N L I ..~ ~ W W 0XAX3XlXR.c.1.i.0.! h.h.f.f.f.g.M.M.h.C.F.B.D.J.J.V.n.v.n.b.n.n.v.w.w.v.5.n.=XjXtXn.",
"y y y u u u y y p i f f x x c N I >.u.u.-.W 5XgX@.K.R.c.g.{.Z a.OXh.h.f.f.f.g.M.k.h.M.N.Z.D.J.S.n.v.v.n.b.n.s.w.*.n.4.b.3XhXS.v.",
"y y y y u u y y u i f i p x x b L Q X.'.@X} ]..X$.^ K.B.f.~.L j.k.h.h.h.g.f.f.g.C.2.;.j.m.B.F.S.b.s.s.b.Z.n.s.s.w.x.1.#X3X3Xm.n.",
"t y y y u u u u i i i p i f x x L v B o.<.$.!.O.*XJ ].OX&X0.9 (.d.d.d.h.h.g.f.g.C.| C 9.OXb.b.Z.A.s.s.Z.F.b.v.v.c.x.V.3X<XF.b.m.",
"t t y y u i u u y y u i f x x x x E E } P $.O.G J %.] ~ aXS E r.r.:.d.h.h.g.g.g.V.) d ~.%XA.n.b.S.m.m.S.J.b.v.n.T.D.3X4XB.D.F.s.",
"u y y u u y y s i f f f x f i j N c E E E !.~.H K u.P A n > | :.,.d.a.r.k.d.:.2Xy.3 S |.9.#Xg.S.N.V.s.<XeXA.n.D.H.fXrXB.s.Z.Z.n.",
"t t t y u i y u y p i p x x i b B N E ! Q +.O.h 8 ] j j y ; X.r.:.d.:.k.h.d.#Xj.p 3 7.{.9.#XA.m.A.S.g.tXtXF.n.D.U.U.J.s.s.Z.Z.n.",
"t y p p p i i y y i i i x x l b c c E Q Q ) b - y ( D E E W ,.:.d.:.:.d.M.%Xj.I 6 s 7.7.+.M.S.#X#XA.S.uXuX,XS.J.U.J.B.s.V.Z.Z.b.",
"u i p p p p i i i i i i x x l N c b B E } } B i P } ..'.h.h.d.:.;.;.u.:.'.'.N ; : A 7.7.} k.C.#X#XC.=XuX4X2X,X<XD.K.Z.S.S.Z.m.Z.",
"i i x c c c c c f b i i j p l c N B m N Q o.| _ } ..u.;X;X0XqXsXsXgX9X$X_._ b 0 ; ' 7.' W +XC.+X+X+X*X4X1X0X,X=XB.F.<X<X#XA.V.Z.",
"k i p N U L c c N c i i i u i N l b b c L Q }  .]  XcXVXCXGXZXMXcXsXgXiXQ.V q    .O.{ ` :.+X*X+X@X+X+X;X4XuX*XV.V.<X<X,X#X#XA.Z.",
"` b p N Q I U U L N l s j i u N l x m m N E 0.].cXCXGXVXMXMXMXMXcX^.Q.#.V A n V  .` ' #.'.*X'.`.+X+X+X*X2X2XC.A.S.<X,X*X*X,XS.C.",
"E.D p c ~ ~ I I U B c b n s s C ) m M V B  .6XVXCXCXvXzXbXqXqXgX@X<.N i i ; p l l T ` +.^ k.'.>X@X*X*X*X#XC.1.#XS.,X2X,X*X*X#XS.",
"~.s s V N I ~ %.%.U N f k 8.S 4 L | @.| ].gXdXmXVXsXiX0X9X[.!.[.<.8 F W.[ s % $ p +.$Xp.o.@X`.'.d.j.f.W ~ / #X#X=X,X2X*X#X2X#Xh.",
"!.f f b N ~ %.1.1.~ N x s 8.8.S @ t ; V 0X>X-XsXxX-XQ.%X7X#._ #.N _ cX:XY 3.5 7 8 B _.'.'.;X'.i.:.~ 9 ~ ^ k.#X&X*X,X2X,X*X*X;X4X",
"0.i b c L W -.1.b.1.c c s H 8.8.H $ w ^.].i.Q.^.!.[ m -X0X@.(  .z W ,X=.J 1.c g L N ..;.$X9X>Xj.@X@X;X2X1Xd.u...;.o.X.;.u.u.p.:X",
"' y V B I ~ -.1.L.A.W B Z A 8.8.8.' H { E l t ( <.#.x  X:X$Xt.X.v Y 5.4./ o. X[.l U ;.| ;.'.@X].+X+X@X'.'.d.>.P P B N v B B X.0X",
"` i P P ~ -.1.2.L.rX^ L P m ( ' R 7.` p > 8 [.!.I i.^.:X1XuX1X`.t.eXL.eXhXdXxX0X..} I Q } ).@X@X+X$X$Xj.:.d.>.) M i q p E D f D ",
"+.U I I ~ 2.2.N.Y.rX^ L ) B m R $.' t : 8 Q >X].~ ;.0XsXVXvXNXgXgXgXNXAXcXcXgX@X>.} L Q c W :.@X,X@X@X#X&X<X:.v q t y t u h G E.",
"2.-.^ :.:.#XN.M.U.J.~ P T K L R _ O.f p K %.9 / &.`.MXzX[.^.bXFXSXmXmXmXcXiX@X`.(.} L  .>...:.2.OX@Xh.,Xv.pX%./ a t e q - 2 q h ",
"1.-.:.V.A.tX<X&XU.B.W T T / ! R ] 7X!.N ~ &.B.D.tXNXHXwXW.wXHXUXMXsXgXbXzX7X].t.} N l c I I :.:.~ K ~ %.n.L.b.~ y * $ @ @ * & 2 ",
"OXr.3XfXfXfXrX3XeX&.W V n n C ) @.gX>.} `.0XdXcXMXZXFXKX8X X8XsX].:X0X0X[.Q.Q.(.P m b b m P } u.i.A.V.K.rXI.D.~ 0 $ * f m t q n ",
"kXfXkXhXfXhXhXrXV.~ U P A P E } 8XqX>.>.:XVXVXCXcXsXcX X#.Q.!.y.[.-X6X[.Q.Q.!.+.) ( b f b } X.;.u.3XfXrXyXY.v.K # m y.].`.X.L l ",
"kXlXkXkXjXhXrXJ.| I I I U L W t.9X>X`.'.].sXgXcXgX^.^.!.qXvXzX7X7X7X X].!.~.!.+.O.` b m V ....>.d.K.R.R.yXB./ 9 v a.*X+X#X,X#Xk.",
"kXhXkX<XC.<XA.=.E ) | ~ U K Q '.sX1X@X>X:XqXqXqX6X-X7X6XqXXX7X8X7X[.[.[.~.!.!.7.[ V p ) o.@.o.@.,.l.R.R.L.=.v >.h.#X#XC.A.<X<X2X",
"NX1X,X*.=.%.} N m E Q W K L ) _.:X@XX.;.Q.[.7X7X7X7X7XXX7XXXXXXX}././.}./.!.#.O.V V P o...>.X.X.;.z.lXY.v.o.} _.'.+X+X#X#X#X#X#X",
"nX(.-.1.1.~ T ` B N L B B L C ` u.'.;.} }  .].7X XXXwXXX}.wX/.XX}.}.}./.~.!.{ A q #.[.p.o...>.@.#.z.R.e.1.t. ...>.j.'.+X@X#X#X,X",
"qX+.I K c N n s ( V V V V E B N ..<.i.+. .@.Q.[.XX[.7X7XXXwX/.XX}.}./.~.#.` n q % ' 9X>Xh.| X.@.[ a.K.r.+.o.| +.o.u.).'.@X@X+X+X",
"@X! ( A k n m c Z s n n j B B B L P Q.y.+.!.^.[.XXXX[.}.[./.}././.~.W.7.A - @ @ - t i.9XuX;.} @.[ :.s._ { @.;. ...;.;.>.j.+X+X#X",
"9.C E m i A V M M m V B K U K K V m V ( O.O.C O.!.[.~.~.!.~.~.E.#.7.G & $ % + q - - | >XiX$XQ  .,. .] 6Xy...! X...) )  ...,.j.;X",
"$.Z m V s s s b M b V E Q W U L V V V b V V V ` s T ( A ( G s b t +   * * $ 3 G 2 t  ._.@Xp.Q ] X._  XCXQ.} p. .Q _  .....,.u.a.",
") N b n n n m m b m V E B c P B n V V V V p #.Q.* 3 - @ % : : + x y k a *   * M s t ) >.(...) E ! ].cXFX X_ y._ }  .@.@...;.>.u.",
"@.#._ A A ( ( v m P P L B B P b b n b n V b -X:Xe e a 2 @ u !.[ f ` D - @ % - A ' i | i._.Q E _ ].BXCXMXcXQ. . .@. .X.@.>.;.'.6X",
"-X6X6X-X#.Z m _ Q ) E Q ) ( ( ` m ( V b V  .gX$Xq - G u   - O.!.@.f + @ e q * j [ V <.i.t.! ].gXCXZXVXZXKX8X .+.@. . ...u.u.0XvX",
"qXcX0Xt.L ) | L ) ) } ) ) L ) [.` ( ` ( ( +.0X1XO.y { e $ % + ( ^.: : [ !.7.{ [ O.E  .Q.0XgXBXVXFXMXJXFXHX0X..@...t.t.X.u.p.sXcX",
"iX>.W / ~ | } | ) } ..Q ..o.) 7X].V V ` ( E `.0X-XV ] u G G : t V + b !.#.O.#.#.0. XsXvXVXVXBXBXMXJXKXFXFX0Xu.>...y.y.;.p.t.0XsX",
", B ,X4Xk.,.| | | | | ~ %X9X} >.vX@.V ` ( ) @.>X0X@.#.#.[./.#.3 - - ` !.[ [ /.sXvXVXNXcXNXBXZXCXGXDXDXFXCX0X`.} >.@.t.t.p.>.8XzX",
"8 '.kXjXrXrXJ.B.s.~ X.5XmXCXmX8X0XcXt.L P ) B @.2X%X!.~.!.!.[.E.t t [ 0..XmXCXVXNXNXBXVXCXFXFXFXJXDXDXCXCX0X].:.} y.t.p.p.).].vX",
"v o.k.<XeXrXrXrX2XuXvXVXmXBXFXBXsXsXvXy.) ) ) P ;.0Xy.!.~.{ ~.~._ ] 8XCXGXBXgXBXAXZXCXCXFXFXFXFXDXDXZXBXNX6X@XW ]  .Q.p.).p.].-X",
"Q W W ^ r.g.J.rXC.'.dXVXSXIXDXDXCXBXcXsX`.@.+.+.] o.#. .E.!.{ E.8XvXGXmXcXCXCXBXZXFXFXZXDXFXGXHXKXKXGXVXcX-X:X| 8 p )  .`.Q.].6X",
"c U ~ | %.%.&.w.s.&.W ]  XMXLXDXVXZXBXBXcXQ.i.<.@.#.` ' #.[ /.cXCXNXBXBXCXZXBXGXGXHXKXKXKXSXmXxXXX/.0.O.E B >X].` [.!.B N o.o.Q.",
"K W -.-.1.1.&.%.*.s.&.9 = B 8XFXKXMXZXFXVXsXt.;.#.#.7.' [ 8XCXZXMXBXZXZXGXKXKXKXGXMXqX XE.[ G M M u q q y x 6X0X[.^.Q.[. .N N Q.",
"&.&.&.*.1.1.1.1.*.=.&.:.v = 8 @.bXKXDXDXBXCX;Xa...>.+.` qXKXMXmXDXDXGXKXLXSXwX/.[ ( b u t - * % % % * * u i ` B y E O.!.9X@.Q 9X",
"x.c.D.D.D.x.*.*.%.&.:.u.} c ; : x zXKXDXDXCXCXS.J.s.o.sXFXmXZXGXJXHXFXsX!.` m p - * + + + + % * 6 & & * k u t t Q 6 +.[.#.) ).@X",
"Y.U.Y.I.I.I.D.*.^ ^ } Q b ; : t 8 : wXLXDXCXCXhXI.K.hXCXZXZXGXFXSXoX` p ; , 8 > @ % * * - 0 w h 0 $ & & G h q m x } [.Q.P Q.$Xj.",
"pXkXkXlXR.R.H.P.x.w.w.s.:.K 8 6 a ; 6 dXKXJXJXMXD.3XGXAXGXGXHXoXE = p % ; % * * 0 w w u e 6 e G w $ $ q D t.'.+X'.`.`.o.i.uX2.M.",
"D.U.kXNXjX3XU.I.P.c.c.c.D.Z.*.Y ; 6 6 f mXJXKXJXhXkXGXJXHXcX0.e ; : : : * * e & & & * * 6 * q k a $ w - m -X;X;X1Xp.X.] -X>Xj.OX",
"eXD.eXjXNXuXA.Z.I.Y.I.P.P.I.c.*.8 p t + E.GXJXJXGXKXKXPXwXt p +   * * 0 - * * $ 0 $ + + e 6 e q F $ - - D -X1X*X>Xp.o.y.sX XgXgX",
"OXG.L.fXhX1X2.9.9.f.B.H.H.H.I.U./ 8 3 3 6 cXHXLXPXPXPXoX3 5 > : 0 $ & $ + $ # k a 0 w 0 h 6 6 - g 0 * q B ].0X'.*X].t.y. X0.VXcX",
"C.6.G.M. .(.OX#Xp.y.9._._.B.H.H.V.= 3 r # .XKXLXLXPXnXk 2 + + + e . * . $ * q [ g j ` M j % : : t q e D D ] >X1X;X;X;... .0.SXqX",
"&.1.6.:._.2X,Xg._.(.9.<.<.j.M.m.V.9 q q ; D  XW.E.E.h a & O & 7 . X . . * * u u q q M m b q t 6 y t k M x E p.>X1X*Xu.X._ 7XKXmX",
":.@X`.r.2X9X9XuX2X2X1X%X_.(.(.<.2.} 6 - ; ; - # 6 # t e r r 1 o X $ o O o 0 u : 6 = : t f m m i t ( M ; 8 ] `.p.;X;X@Xo.] cXHXHX",
"2X8X.X>XOX(._.].;X1X0XsX0X0X9X-X%X].F * u 5 3 e - i y k r 1 O @ . O o X . G f 8 6 = = : ; p m m f ( 6 f B N ].:X;X:X>X! 0.FXJXKX",
" X0X) _.].).(.2.j.>.i.@X%X%X%X9X9X%X[.t t q - b F e k h e 0 o . o o o o $ - q ; 1 o * 8 8 : m 8 f u f b x E p.*X;X=X1Xo. XHXZXGX",
"VX@.c ..<.).j._.j.,.j._.j.,.,.<.<.<.!.t 6 t ; t k a a h r 0 X O         . $ % + %   * 8 8 6 D V f t m m p ..>X>X].;X1Xy.sXKXJXGX",
" XB >.(.Q.i.>.,.j.i.j.i.,.,.j.i.>.<.!.j % q q 3 r k e h r 0 e o   . + . + # #   = # : 9 z y F V f t x m x Q ).].p.;X:X-XFXKXJXHX",
"i N } ;.>X].].].).i.,.,.<.<.<.>.@.b V M q * * q 2 k a a e e h *   . @ + @ $ $ $ , : 6 c E j e t b M b b B c L t.u.;X].sXKXPXJXKX",
"m ) c | :X>X:X9X:X$X-X6X:X[.Q.y.Q.( m f * * - - & w h a e a a 2 o . . . . $ * * 9 8 8 L ( h & ; f ` _ m V N N _ p.>X].MXKXJXKXLX",
"b N z ~ ,.>.>.i.i.y.^.6XqXqXqXqX9X9X-X#.u * 0 2 2 e h h h k u 2 & $ $ X X . % : z y k m M w e b m M ` _ m b E E p.].8XFXKXPXLXnX",
"m l K I ,.).Q.<.>...>.>.>.i.).).%X%X6X6X~.* @ w 2 2 h h h k u q z , - 1 & $ * ; z j H j a e j P D f B ` b i N E X.t.cXKXPXLXPXE.",
"t N K -.@X<.(.9.j.j.(.i.>.,.(.(.i.p.<.<.!.u 2 2 * 1 w r w e u s Y < , e 0 & * t p k { h u w k c b V m f b b m E E ] VXKXJXPXnX1 "
};
