/* XPM */
static char *d7d828520c0846cea1eb3fff0c5bd704[] = {
/* columns rows colors chars-per-pixel */
"64 64 256 2 ",
"   c #170B19",
".  c #1B121B",
"X  c #0E0912",
"o  c #27171B",
"O  c #371A18",
"+  c #260C16",
"@  c #3A231C",
"#  c #06072A",
"$  c #1C0E2C",
"%  c #180A25",
"&  c #071328",
"*  c #1B1224",
"=  c #1A152C",
"-  c #1C1333",
";  c #1B1737",
":  c #101136",
">  c #240C2A",
",  c #221523",
"<  c #251A24",
"1  c #2D1C23",
"2  c #241A2C",
"3  c #2A1D2B",
"4  c #26142B",
"5  c #361B27",
"6  c #241C34",
"7  c #271936",
"8  c #361C35",
"9  c #2C0F29",
"0  c #0B2637",
"q  c #2C232B",
"w  c #332225",
"e  c #33242C",
"r  c #3B262A",
"t  c #292338",
"y  c #33243B",
"u  c #382836",
"i  c #363539",
"p  c #5B351D",
"a  c #4C2C1B",
"s  c #431C31",
"d  c #472A28",
"f  c #4B3628",
"g  c #573829",
"h  c #432C34",
"j  c #432D3C",
"k  c #482836",
"l  c #483638",
"z  c #573738",
"x  c #542B34",
"c  c #643B26",
"v  c #673B36",
"b  c #401C18",
"n  c #5A422A",
"m  c #5B4639",
"M  c #6A452A",
"N  c #6B4A3C",
"B  c #664638",
"V  c #764938",
"C  c #6A5737",
"Z  c #785439",
"A  c #6D4A2D",
"S  c #76643B",
"D  c #69441A",
"F  c #1C1747",
"G  c #221D42",
"H  c #281F54",
"J  c #1A2948",
"K  c #143749",
"L  c #292546",
"P  c #3C2C44",
"I  c #372A47",
"U  c #393349",
"Y  c #292B57",
"T  c #372C57",
"R  c #2A3359",
"E  c #393658",
"W  c #25324C",
"Q  c #383965",
"!  c #363873",
"~  c #1C3071",
"^  c #472B48",
"/  c #483648",
"(  c #553847",
")  c #472B57",
"_  c #483A56",
"`  c #563958",
"'  c #532E49",
"]  c #653C4F",
"[  c #573A62",
"{  c #473969",
"}  c #663D67",
"|  c #374251",
" . c #3E4467",
".. c #354874",
"X. c #255263",
"o. c #594548",
"O. c #49435B",
"+. c #584659",
"@. c #4F5055",
"#. c #674847",
"$. c #774A45",
"%. c #6A5545",
"&. c #785948",
"*. c #654857",
"=. c #6A5457",
"-. c #765757",
";. c #754C5A",
":. c #7A6548",
">. c #796558",
",. c #736A50",
"<. c #464667",
"1. c #574866",
"2. c #484A78",
"3. c #564976",
"4. c #4C5477",
"5. c #575579",
"6. c #4C546A",
"7. c #664965",
"8. c #784C64",
"9. c #6A5567",
"0. c #765867",
"q. c #6F5775",
"w. c #586179",
"e. c #746970",
"r. c #824F3D",
"t. c #84543E",
"y. c #955D3E",
"u. c #836435",
"i. c #8B5A4C",
"p. c #865746",
"a. c #945D4C",
"s. c #875A55",
"d. c #915F51",
"f. c #814E44",
"g. c #886749",
"h. c #976449",
"j. c #886A56",
"k. c #956253",
"l. c #996655",
"z. c #88765A",
"x. c #997758",
"c. c #8E744C",
"v. c #A57459",
"b. c #B07151",
"n. c #865967",
"m. c #885B76",
"M. c #91577A",
"N. c #876768",
"B. c #956A66",
"V. c #877267",
"C. c #987768",
"Z. c #886A78",
"A. c #946975",
"S. c #8C7475",
"D. c #977777",
"F. c #A87A63",
"G. c #A67B75",
"H. c #B37D67",
"J. c #C87C52",
"K. c #7C877C",
"L. c #978559",
"P. c #A48A5D",
"I. c #97876E",
"U. c #A7886A",
"Y. c #AA877A",
"T. c #B78A76",
"R. c #AA9574",
"E. c #B79679",
"W. c #B28F69",
"Q. c #B8A378",
"!. c #BDA66E",
"~. c #D78858",
"^. c #C9885E",
"/. c #DA9667",
"(. c #C39878",
"). c #D08F6B",
"_. c #E2986A",
"`. c #C4A97A",
"'. c #D4AE76",
"]. c #EAAE7D",
"[. c #E18E5E",
"{. c #273D83",
"}. c #443E81",
"|. c #384A8A",
" X c #585A85",
".X c #4F4F88",
"XX c #5C6387",
"oX c #4F7488",
"OX c #646889",
"+X c #666B94",
"@X c #6A7396",
"#X c #747998",
"$X c #766E8A",
"%X c #7179A8",
"&X c #5C6197",
"*X c #987887",
"=X c #8B708C",
"-X c #A57A87",
";X c #A97490",
":X c #AA739A",
">X c #748795",
",X c #798FAA",
"<X c #6E9DAE",
"1X c #7885C1",
"2X c #7FB3C1",
"3X c #908A8D",
"4X c #A78789",
"5X c #B58B87",
"6X c #AA9584",
"7X c #B79686",
"8X c #AA8695",
"9X c #B89696",
"0X c #AF9293",
"qX c #BBA688",
"wX c #BCA896",
"eX c #8D92AE",
"rX c #B590A6",
"tX c #95A9B6",
"yX c #ADAEB2",
"uX c #C59A87",
"iX c #C59D99",
"pX c #DD9E81",
"aX c #C9A789",
"sX c #D3A989",
"dX c #D9B589",
"fX c #C5A796",
"gX c #CBB698",
"hX c #D6B996",
"jX c #CCAF8E",
"kX c #EBB68E",
"lX c #D4B6A7",
"zX c #CEB1AD",
"xX c #D4ABA9",
"cX c #D7C599",
"vX c #D0C48F",
"bX c #FACA97",
"nX c #EECE93",
"mX c #D9C6A7",
"MX c #DCCAB0",
"NX c #E9D7A8",
"BX c #EDD5B2",
"VX c #F8E4B4",
"CX c #FBE59C",
"ZX c #95AFCA",
"AX c #ABB5CD",
"SX c #9199CD",
"DX c #C5BBDC",
"FX c #B2C8D9",
"GX c #B2D2E8",
"HX c #A2CFE2",
"JX c #F1D6C2",
"KX c #F8E8C4",
"LX c #D3D4F0",
"PX c #D2EAFA",
"IX c #EFEFFE",
"UX c #D3D1E5",
/* pixels */
"C.&.N g f f C L.,.%.m l l r r h l h r f f d r h ( e u e e e e 1 5 5 5 w w o o q P 2 _ $X3.{ L Q 2.! ! ..! Y R L t = % , , o 5 + ",
"U.&.N g f a ,.C ,.I.m l l r r d r r d I.g d d h l 5 1 *.o.e 1 r 5 5 5 w 1 q q < t I $X_ ) 5.E Q .X&X|.! ~ Y Q J t = * , , o 1 + ",
"U.g.%.m f f I.,.I.I.%.l l h d f d d %.MXm f d l h r r 0.h l ( o.5 w 5 w w e e q t 9.` ) ) OX2.Y %X&XSX{.|.|.Y W t = * , , o 1 + ",
"U.g.&.B n f z.,.z.I.,.f f f n N g g qXBXN f l ( z d ( o.+ =.-.O @ @ 5 w u q q i 9.P ^ ` ) [ 3.Y 1X|.&X{.|.|..XJ t = * , , o 1 + ",
"E.j.&.N f n ,.z.L.I.m f f a E.j.g U.VXNXC g z ( z @ #.O + O O O O r r w e q i q.` ^ ^ ` [ ) 3.T &X|.{.~ ~ &X&XJ t = % , , 1 1 + ",
"7Xj.&.N m f ,.,.%.,.g B a &.KXhXjXVXVXcXA m z z d $.z a x b O O b @ @ r 3 i q.O.^ ^ ` } [ ) { Q ! .X|.|.|.1X..Y L 6 2 3 o 1 1 o ",
"aXx.&.B m m C L.z.B %.g g uXhX`.NXNXNXc.M B z ( #.Y.g &.B.$.g d d d d r u 9.1./ 8 ^ ` } [ ) { { Q ! |.%X1X..Q W L 6 2 3 o 1 1 o ",
"jXx.&.B B n :.I.&.g B g C.T.x.E.hXBXjXC n B #.( C.7XN Y.7XY.&.g f B m w =.9._ ^ P ' ` ` [ [ ) { T Y ....Q Q E L t 2 , < o 1 1 o ",
"dXW.g.V V N N #.n B f z.E.C.F.aXmXBX6X%.m #.V.B 7XlXC.:.&.&.&.&.a n f z =./ 8 8 ` ` ` ` ` ` _ _ U L T T _ U i t < o < o o e 1 + ",
"dXW.h.Z V V $.N N g N Y.Y.7XuXMXlX9XN.=.*.#.&.f %.6XfX:.n n B C a B m m l 5 + 9 ` ` *.7.` _ ) ) _ L P / / u q i l l u e o r + o ",
"dXW.h.t.r.V V v B g 5XfXxXlXiXB.N.N.0.9.9.=.=.m %.>.6Xz.%.m m ,.6X0X4X4X4XV.-.#.=.-.0.0.' ' ) ) O.t U ( / u i =.i r w o w u l r ",
"dX(.l.t.f.$.v v a C.5XG.s.$.s.] s #.*.0.0.0.0.e.>.>.=.=.o.o.e.wX3Xe.@.=.=.e.S.V.-.=.*.` ' ) ) T <.L U +.e o.@.q w 1 1 1 w o.u . ",
"kX(.v.h.k.$.v v v G.$.A.s.;.8.*.k k 0.0.*.-.-.rX3XK.e.e.e.e.yXe.e.e.e.@.i i i l l j j j ` ) ) T 5.W U / l l j i e w h r o.r + o ",
"dX(.v.h.d.f.V N $.s.n.-X*.] 7.*.( 5 #.S.S.4XrX*X$X>X3XeXtXyXeX>XeX3Xw.6.O.| U U / ^ P P I ) { { XXW O.m o./ / u e w o l o.+ e + ",
"dX(.v.h.d.f.$.$.s.s.A.-X` 7.` ` +.0.Y.I.6XlXwX*XeXtXAXFXAXAXeXtX#XW & # & ; U <._ E E T L T { <. .W | m h h j i e w o l e o o o ",
"dX(.v.h.d.p.$.&.s.A.A.A.k ` 7.e.Z.D.V.%.,.V.zXyXAXFXFXFXFXFXtXeXW 0 # & & # & W  .Q Q Q Y R Q Q R  .| =.9.=./ u w w h r o o w o ",
"dXaXH.k.d.p.p.s.s.n.G.n.s ' Z.Z.=.l o.e.K.3X3XDXUXPXPXPXPXGXAX4.@XoX0 # K X.0 # J R R Q Q  .Q Q  .R U O./ +.=.*.l r l r O o O d ",
"dXaXH.l.k.i.p.s.n.A.-Xn.( N.e.*.l =.>X>XtXyXyXFXPXPXIXIXPXLXtXJ ..K 0 0 oXoXK J : Y 2. .Q Y Y Q Q Y L I y 3 e h o.=.f l d @ r z ",
"dXaXH.l.d.i.p.s.B.B.5X9XN.=.o.h / e.| i 6.>XtXFXIXIXIXIXIXPXtX& J K K X.2X>X.. X4.%X@X@X@X+X2.Q Q Y L L t e h o.#.f f m #.f d @ ",
"dXaXH.l.d.p.p.s.B.B.4X-X*XZ./ ^ / q i 0 X 0 6.AXPXIXIXUXDXLXUX6.| >X2X2XHXZXHXZXZXSXeX%X+X X X4.<.T U U / / h @ O d g f f m g O ",
"dXsXT.v.k.k.k.j.N.N.8X7.8 ` ` 1.6 & tX0 & K K w.IXLXrX=Xq.AXIXIXPXPXGXGXGXHXZXSXeX%X+X&X2.XX+X X2.<.1.O.( l f d g g f g a f g g ",
"dXsXT.F.l.k.i.s.D.-XrX*.8 ` 1.T # R W X & <XoXw.LX=X1.P =XIXLXLXFXAXZXtXZXeX,X%X+XXX X.X4..X2. .<._ / j o.o.z z B g g a p g g c ",
"hXdX(.H.v.k.k.B.4X0X4X*.7.q.I - ; 4. .& oXZX<XPXIXIXeX$XDXAXeXeX>X,X,X,X#X@XXX X X.X4.4..X2.Q R _ _ +.*.o.o.#.N N M c p g g p p ",
"mXhX(.H.F.l.C.5X9XD.Z.0.=Xq.T ; ; 4.,XZXHXGXPXGXLXLXAXeX=X=X$X$X#X@X@X@XXX X X3.4.4.4.4.2.Q R Q U / ( ( z z B N V A A M c p p a ",
"fXlXhXuXY.5XiX9XD.-.*.=XeX1.5.+X#XeXFXLXLXFXZXeXeXeXeX6.L E <.6.6.w.OX+XOX X X.X<.<.<.<.<. . .O.` ` ( ( d d z B g V Z Z A A M p ",
"fX7XmXfXqXzX9XS.=.=.=.3Xe.5.#XeXSXZXZXAXZXeX,X#X@X+X<.<.eXeX#Xw.OXOXOX X X.X.X3.1.<.O.O.O.O.O.O.+.^ j l z d z %.Z M M Z Z M A Z ",
"MXlXlXlXlXzXD.=.#.*.S.$Xq.OX#X%X@X@X%X,X%X@X+X+X@X5.4.eXtXeX>X#X@XOX5.3.3.3.3.3.1.1.1.+.+.+.+.+.o.l o.l z m #.&.x.x.x.c.W.c.Z A ",
"lXfXfXlXlXD.;.( =.N.*Xe.q.OXOX+X+XXXXXXXOXOXOXOX X+XeX#X#X@XOXw.OXXX5.3.3.3.3.3.7.7.*.=.=.=.=.=.l m >.m >.D.Y.C.R.R.R.R.U.R.E.W.",
"C.9XzXzX8X0.*.*.*XS.e.9.q.5. X X X X X X X X X XXXXXXXXXXXXXXXOX5.5.5.3.3.7.q.q.7.0.e.N.e.Y.zX&.&.j.I.I.C.V.j.>.c.c.c.g.S A C x.",
"V.C.D.S.0.*.0.Z.D.N.9.9.1.1.3.2.2.2.2.2.4.4.4.4.4.4.4.4.4.4.4.4.3.3.3.1.1.7.7.9.0.0.Z.S.4XgXgXgXcXjXqXjXgXgXfXfXqXQ.R.R.R.c.C C ",
"wXJXzX0.*.*.;.;.#.o.o./ _ { <.<.<.<.<.<.<.<.<. . . . . . . .<.<.<.<.[ [ 1.7.9.9.Z.Z.I.wXMXmXBXVXNXNXmXgXcXgXfXqXmXcXcXgXqXwXU.:.",
"zXzX4X0.*.0.0.9.o.o.( / _ _ _ E Q Q Q Q Q Q Q E E E E E E E E _ _ { _ _ 1.7.9.9.e.4XzXMXKXKXKXNXvXvXcXmXmXgXqXR.R.R.qXqXmXmXmXqX",
"4Xn.*.' *.7.` ` / _ _ O./ / O._ T E Q E E E E E T T I I E E E E <.<.1.1.1.1.1./ V.MXKXBXVXNXNXBXNXBXmXjXz.:.g.L.z.C C C %.z.6XgX",
"zX*X9.` *.q.7.[ _ _ ) ^ P ^ u P _ ) T T I I U U I I U P U U U U O._ _ _ _ I 7 2 e.7XmXBXNXNXNXVXVXcXqXQ.gXcXQ.L.P.Q.S C n n m :.",
"9X0.*.` 7.*.` 7.[ [ ` _ P / +.9.7.+./ ^ y I I I I I I I I I I I U P I y = * = t l =.C.qXBXVXNXNXcX`.!.`.cXaXS A c.U.C A C g a g ",
"S.*.( k ( ` ^ ` ^ / _ ` j ( 8XrXzXrX8X=X7.` P ^ y y y y y y y y t 2 *   = 6 t 2 1 / =.>.7XhXcXNXNXdX!.!.L.W.L.W.W.S M p A g a b ",
"&.%.f z z h h j j j j h l 3XiXzXzXzXzXzXzXzXe.9.e 4 *             * 3 t i 2 * 2 , 1 l >.C.R.Q.jXnXbXnXdX'.dX`.u.c.g.D p g g g g ",
"j.j.g B m m m #.o.o.o.m -.6XfXfXfXgXlXlXzX4X*.u e 2 3 q , , , , 3 q u i u q * * 2 3 3 r =.C.E.jX`.sXdXdX(.`.c.D x.c.Z c c c c c ",
"`.U.U.L.j.j.j.C.&.&.&.&.R.hXhXhXhXmXBXBXMXV.l o u , , u < < < < < < < q q q , . o e u u 5 #.C.7X(.(.(.aX(.x.Z h.P.x.g.M c c c c ",
"dX`.`.jXQ.R.R.R.U.U.U.U.jXNXBXBXVXVXVXJXwX>.r 1 u   X , . . . . 3 3 < < q u 3   , , 3 u 9 k s.7XfXaXaXsXU.g.v.E.U.v.x.M c c c c ",
"P.P.P.P.Q.!.Q.jXgXfXlXgXlXlXlXhXjXhXmXmX6Xm 1 < 7 % % % % % % % 4 7 t 2 / P 4 % $ 4 4 8 8 5 ;.iXiXiXxXxXfXaXaXuX(.(.U.A c c A p ",
"g.x.x.c.U.L.g.:.%.B g j.fXfXiXfXaXqXwXfX>.r . 2 2 $ $ $ $ $ $ $ $ $ 7 I I 7 $ $ $ 4 4 8 9 9 x n.9XiXfXfXiXuXuXE.E.(.E.p.c c M g ",
":.%.z.&.g &.j.>.V.&.g V.7X5X7X7X7XqXqX0X>.q , * - - 6 - - - - - 7 $ $ 6 t = $ $ % > 4 9 8 5 k k A.5X5XY.G.F.C.x.F.U.T.l.c M c c ",
">.-.#.N.o.f h l d d d -.5X7X7X7XR.fXwXI.l . * t 6 6 6 ; ; ; F F # - 7 ; - % $ 7 $ > > 9 + 5 ( ( #.-.B.j.&.&.Z V Z p.x.g.A A c A ",
"o.=.l l o./ h r r h 5 -.4XY.Y.Y.7XY.6X-.w   2 t I t L <.Q T Q Q H F G L I L - $ > % > 9 ^ n.rX8X-XN.$.s.p.p.p.p.p.Z C.p.M A V V ",
"+./ u u 3 e u j u j r #.D.C.C.C.z.j.m @ w X . * O.L t E XX3.2..X.XQ F H L L 6 - % % 9 8 *XrXrX0XiX4XB.$.p.p.p.p.&.g.x.V V V Z t.",
"9.u u q u u u u j ^ k x -.-.&.&.:.g.B C f . .   t E : G Q .X}.}..X.X! F ; ; 6 6 % > > ^ Z.*X*X8X9X0X4XB.&.&.&.p.g.l.g.A V V r.t.",
"9.( u q e u u P ^ ^ k k #.N N A Z Z C %.m w o . = E E : Y { { Y ! ! 2.Y : : - ; 7 > > ' 9.*.n.A.-XG.G.C.&.&.&.p.k.p.V V M A V V ",
";.#.d 5 u 8 y y P ^ / l d N N A Z V N %.=.o 3 % - ; Y L : Y T T Y Y T E ; ; : % $ % > j q.8.8.n.n.N.4XY.B.p.j.p.p.i.r.A c c A A ",
"-.#.z d 5 8 y y y u j l d z %.%.B B $.-.*., 2 7 - 7 - Y ; # G Y G L L Y ; ; : $ $ > > 8 m.*X*.] ;.A.5XY.B.p.p.i.i.i.r.A c M A V ",
"s.#.#.x 5 5 8 e y y u j h h o.%.#.#.#.*./   = t L - 7 ; L # # ; ; ; 7 G G ; ; - $ 4 9 8 8 Z.A.A.n.N.Y.Y.B.l.g.k.i.i.t.V A A V Z ",
"s.$.$.( x 5 5 r u u u u l h l #.-.-.o.l ,   * = L L - - L G # - : : ; ; G G ; ; > 4 9 8 k ' ;X8XA.C.Y.B.C.T.F.l.i.a.t.V A V V Z ",
"s.s.-.B B z d r r r r r u l h l =.( 1 1 2 2 * * L L $ $ 7 ; - - - ; ; - ; G ; $ % 8 ^ ' s s *.-X-XuXuXH.F.v.sXv.p.t.p.V V V Z r.",
"s.s.&.N v v z z x d d r h k h / +.e 3 2 3 2 2 * t L - - 6 ; - $ = ; ; - ; G 6 - > 8 1.^ s s s x B.5XuXT.F.l.v.sXh.i.p.t.r.r.r.r.",
"s.s.s.$.N N N B v x x d k k h ( / 2 6 6 t 6 2 2 6 I t 6 7 6 - = = ; ; - ; L L 7 7 ^ q.^ s k ' $.s.F.(.H.v.v.v.sXv.h.h.a.t.t.p.p.",
"s.s.s.$.V V V B B v v x x d k ( u y 6 6 t t 6 6 2 U I 7 7 2 = = = ; - = ; L I L 9 ` =X' k ' ] s.B.T.uXT.^.b.h.(.(.l.l.h.y.y.p.p.",
"p.p.d.f.f.i.V V V N N v v z z h 8 y I I E T ; ; 7 / ^ P 8 7 = = = ; - 6 4 ) ` 7.' n.=X8.] 8.n.k.T.kXdXW.H.b.b.H.pXb.h.h.h.h.h.y.",
"p.p.d.p.p.i.f.$.N B V v v v z h e y I U E T Q T 2 _ ` j y 8 6 = ; = - 2 > ^ } 8.] :X;Xm.8.n.B.T.kXbXpX).J.J.b.b.kXb.b.h.b.b.b.b.",
"p.p.i.f.d.p.i.p.$.$.V V v B z k u P P U _ E <._ y ^ ` ^ P y t ; t 6 6 4 9 ' m.=X;XrXM.8.n.n.s.uXbXbX]./.^.^.^.b.].kX^.^.^.J.b.b.",
"p.p.i.f.p.V f.$.$.V V V V V x k h j ^ / _ O.E _ _ y ` ' ^ P t t t t 7 7 8 ` =X:XrXA.8.8.n.s.s.sXkXbXkX_./.~.~.J.~.kXkX_._./././.",
"k.d.d.k.i.d.d.i.p.p.f.r.p.V d d ( j / +._ O._ U _ ^ ` ` ^ 8 I y U U y 7 ^ q.rXrXA.m.n.n.N.s.x.kXbXkXbX)./._._./.[.~./.kX_._./.~.",
"k.i.i.k.d.i.i.d.d.d.a.i.d.f.g d l l / ` _ O._ U _ ^ ` ` ` y U U U / ^ 8 ` =X:X;Xn.n.n.n.s.s.U.nXnXkXbX].'./././._.[.~.~.J.J.J.J.",
"d.i.i.d.d.i.i.d.l.k.a.a.l.d.$.d x z ( ( _ +._ / / / ' ` ` ^ / U P / 7.^ 7.:X:XM.n.n.m.A.B.C.sXbXnX'.nXVXbX]././.[.[.[.~.J.~.~.~.",
"i.p.p.d.i.d.d.i.k.k.a.a.l.k.s.x d ( ( / ( +._ / / ` ^ *.` / O._ y ` =X7.m.rX;X=Xm.m.A.A.C.T.NXVXCXCXnXnXCXbXnX]._._.[.[.J.J.~.~."
};
